<svg width="56" height="78" viewBox="0 0 56 78" fill="none" xmlns="http://www.w3.org/2000/svg">
<path d="M28 72L26.5214 73.3467L28 74.9701L29.4786 73.3467L28 72ZM28 72C29.4786 73.3467 29.4789 73.3464 29.4793 73.346L29.4806 73.3446L29.4848 73.34L29.4996 73.3236L29.5547 73.2626C29.6026 73.2094 29.6725 73.1315 29.763 73.03C29.944 72.8268 30.2072 72.5288 30.541 72.1446C31.2086 71.3762 32.1589 70.2621 33.2977 68.8706C35.5737 66.0897 38.6116 62.1898 41.6536 57.7188C44.6916 53.2535 47.7588 48.1819 50.0726 43.0601C52.3745 37.9649 54 32.6706 54 27.8C54 13.5557 42.323 2 28 2C13.677 2 2 13.5557 2 27.8C2 32.6706 3.62551 37.9649 5.92736 43.0601C8.24121 48.1819 11.3084 53.2535 14.3464 57.7188C17.3884 62.1898 20.4263 66.0897 22.7023 68.8706C23.8411 70.2621 24.7914 71.3762 25.459 72.1446C25.7928 72.5288 26.056 72.8268 26.237 73.03C26.3275 73.1315 26.3974 73.2094 26.4453 73.2626L26.5004 73.3236L26.5152 73.34L26.5194 73.3446L26.5207 73.346C26.5211 73.3464 26.5214 73.3467 28 72Z" fill="#3C8AFF" stroke="#3C8AFF" stroke-width="4"/>
<path d="M4 27.8C4 14.676 14.7657 4 28 4C41.2343 4 52 14.676 52 27.8C52 45.65 28 72 28 72C28 72 4 45.65 4 27.8Z" stroke="white" stroke-width="3"/>
<g filter="url(#filter0_d_71:280)">
<path d="M35.415 26.2075L34.1114 24.9039L28.9433 30.0628V15H27.0943V30.0628L21.9354 24.8947L20.6226 26.2075L28.0188 33.6037L35.415 26.2075Z" fill="white"/>
<path d="M35.7686 26.5611L36.1221 26.2075L35.7686 25.854L34.465 24.5504L34.1117 24.1971L33.7582 24.5501L29.4433 28.8572V15V14.5H28.9433H27.0943H26.5943V15V28.8542L22.2893 24.5414L21.9357 24.1873L21.5818 24.5411L20.269 25.854L19.9155 26.2075L20.269 26.5611L27.6652 33.9573L28.0188 34.3108L28.3723 33.9573L35.7686 26.5611Z" stroke="white"/>
</g>
<g filter="url(#filter1_d_71:280)">
<path d="M16 28.0565V38.6886H40.5V28.0565" stroke="white" stroke-width="3"/>
</g>
<defs>
<filter id="filter0_d_71:280" x="14.2083" y="9" width="27.6211" height="31.0179" filterUnits="userSpaceOnUse" color-interpolation-filters="sRGB">
<feFlood flood-opacity="0" result="BackgroundImageFix"/>
<feColorMatrix in="SourceAlpha" type="matrix" values="0 0 0 0 0 0 0 0 0 0 0 0 0 0 0 0 0 0 127 0" result="hardAlpha"/>
<feMorphology radius="1" operator="dilate" in="SourceAlpha" result="effect1_dropShadow_71:280"/>
<feOffset/>
<feGaussianBlur stdDeviation="2"/>
<feComposite in2="hardAlpha" operator="out"/>
<feColorMatrix type="matrix" values="0 0 0 0 0 0 0 0 0 0.13 0 0 0 0 0.325 0 0 0 0.25 0"/>
<feBlend mode="normal" in2="BackgroundImageFix" result="effect1_dropShadow_71:280"/>
<feBlend mode="normal" in="SourceGraphic" in2="effect1_dropShadow_71:280" result="shape"/>
</filter>
<filter id="filter1_d_71:280" x="9.5" y="23.0565" width="37.5" height="22.1321" filterUnits="userSpaceOnUse" color-interpolation-filters="sRGB">
<feFlood flood-opacity="0" result="BackgroundImageFix"/>
<feColorMatrix in="SourceAlpha" type="matrix" values="0 0 0 0 0 0 0 0 0 0 0 0 0 0 0 0 0 0 127 0" result="hardAlpha"/>
<feMorphology radius="1" operator="dilate" in="SourceAlpha" result="effect1_dropShadow_71:280"/>
<feOffset/>
<feGaussianBlur stdDeviation="2"/>
<feComposite in2="hardAlpha" operator="out"/>
<feColorMatrix type="matrix" values="0 0 0 0 0 0 0 0 0 0.13 0 0 0 0 0.325 0 0 0 0.25 0"/>
<feBlend mode="normal" in2="BackgroundImageFix" result="effect1_dropShadow_71:280"/>
<feBlend mode="normal" in="SourceGraphic" in2="effect1_dropShadow_71:280" result="shape"/>
</filter>
</defs>
</svg>
